# xmcd
# 
# Track frame offsets:
#     150
#     19040
#     38495
# 
# Disc length: 762
# 
# Revision: 1
# Processed by: cddbd v1.5.2PL0 Copyright (c) Steve Scherf et al.
# Submitted via: fre:ac v1.0.17
# 
DISCID=1502f803
DTITLE=牧瀬里穂 - Miracle Love
DYEAR=1991
DGENRE=J-Pop
TTITLE0=Miracle Love
TTITLE1=あいたい気持ちI dream you
TTITLE2=Miracle Love(オリジナルカラオケ)
EXTD=
EXTT0=
EXTT1=
EXTT2=
PLAYORDER=
